<svg width="277" height="345" viewBox="0 0 277 345" fill="none" xmlns="http://www.w3.org/2000/svg">
<g filter="url(#filter0_d)">
<path d="M152.593 309.542L42.697 277.947L152.593 249.557L246.082 271.765L152.593 309.542Z" fill="#C4C4C4"/>
</g>
<path d="M246.525 272.079L246.63 138.831L153.332 176.587L153.227 309.835L246.525 272.079Z" fill="white"/>
<path d="M246.63 138.831L215.531 151.417L215.461 240.248L246.56 227.663L246.63 138.831Z" fill="#2688E2"/>
<path d="M215.496 195.833L184.396 208.418L184.361 252.834L215.461 240.248L215.496 195.833Z" fill="#CFD6DD"/>
<path d="M215.531 151.417L153.332 176.587L153.297 221.003L215.496 195.832L215.531 151.417Z" fill="#0F3354"/>
<path d="M73.3784 132.008L151.068 154.153L151.131 269.275L73.4413 247.13L73.3784 132.008Z" fill="#0D5BA3"/>
<path d="M110.593 187.245L150.836 198.729L119.747 211.329L79.5042 199.845L110.593 187.245Z" fill="#0F3354"/>
<path d="M73.7863 221.167L114.029 232.651L82.9395 245.251L42.697 233.767L73.7863 221.167Z" fill="#CFD6DD"/>
<path d="M147.488 153.203L73.387 132.057L135.565 106.856L246.718 138.575L153.45 176.376L116.399 165.803L147.488 153.203Z" fill="#2688E2"/>
<path d="M135.565 106.856L172.616 117.429L110.438 142.63L73.387 132.057L135.565 106.856Z" fill="white"/>
<path d="M141.527 130.029L178.578 140.602L147.488 153.203L110.438 142.63L141.527 130.029Z" fill="#0F3354"/>
<path d="M172.616 117.429L246.718 138.575L215.628 151.175L141.527 130.029L172.616 117.429Z" fill="#CFD6DD"/>
<path d="M36.2888 111.786L36.2888 66.5121L73.2422 52.5386L73.2422 97.8125L36.2888 111.786Z" fill="white"/>
<path d="M73.6355 33.3311L73.6355 78.605L104.314 66.2341L104.314 20.9602L30.6786 0L0 12.3709L73.6355 33.3311Z" fill="#2688E2"/>
<path d="M36.9777 67.4624L37.0019 111.709L0.0484993 101.176L0 12.3708L36.9534 22.9041L36.9535 23.0601L73.6634 33.5239L73.6877 77.9263L36.9777 67.4624Z" fill="#0F3354"/>
<path d="M116.624 210.386L116.6 165.983L153.348 176.458L153.421 309.665L42.5609 278.066L42.5366 233.663L79.5684 244.52L79.5684 199.823L116.624 210.386Z" fill="#0F3354"/>
<path d="M42.5367 233.663L79.4901 244.197L79.5143 288.599L42.5609 278.066L42.5367 233.663Z" fill="#2688E2"/>
<path d="M79.4658 199.794L116.419 210.327L116.443 254.73L79.4901 244.197L79.4658 199.794Z" fill="white"/>
<path d="M116.395 165.925L153.348 176.458L153.373 220.861L116.419 210.327L116.395 165.925Z" fill="#CFD6DD"/>
<defs>
<filter id="filter0_d" x="12.697" y="224.557" width="263.385" height="119.985" filterUnits="userSpaceOnUse" color-interpolation-filters="sRGB">
<feFlood flood-opacity="0" result="BackgroundImageFix"/>
<feColorMatrix in="SourceAlpha" type="matrix" values="0 0 0 0 0 0 0 0 0 0 0 0 0 0 0 0 0 0 127 0"/>
<feOffset dy="5"/>
<feGaussianBlur stdDeviation="15"/>
<feColorMatrix type="matrix" values="0 0 0 0 0 0 0 0 0 0 0 0 0 0 0 0 0 0 0.12 0"/>
<feBlend mode="normal" in2="BackgroundImageFix" result="effect1_dropShadow"/>
<feBlend mode="normal" in="SourceGraphic" in2="effect1_dropShadow" result="shape"/>
</filter>
</defs>
</svg>
