<svg width="193" height="50" viewBox="0 0 193 50" fill="none" xmlns="http://www.w3.org/2000/svg">
<path d="M130.09 31.5112C129.018 32.7436 127.753 33.6871 126.296 34.3417C124.839 34.9772 123.211 35.2949 121.41 35.2949C119.791 35.2949 118.284 35.0157 116.887 34.4573C115.511 33.8989 114.318 33.1383 113.306 32.1755C112.294 31.2128 111.495 30.0767 110.908 28.7673C110.321 27.4387 110.028 26.0138 110.028 24.4927C110.028 22.9715 110.321 21.5563 110.908 20.2469C111.495 18.9183 112.294 17.7726 113.306 16.8098C114.318 15.8471 115.511 15.0865 116.887 14.5281C118.284 13.9697 119.791 13.6905 121.41 13.6905C123.15 13.6905 124.677 13.9793 125.993 14.557C127.328 15.1346 128.512 15.9722 129.544 17.0698L126.66 19.727C126.013 19.0146 125.264 18.4465 124.414 18.0229C123.585 17.5993 122.593 17.3875 121.44 17.3875C120.428 17.3875 119.477 17.5608 118.587 17.9074C117.697 18.2347 116.918 18.7065 116.25 19.3226C115.603 19.9388 115.087 20.6898 114.702 21.5755C114.318 22.442 114.125 23.4144 114.125 24.4927C114.125 25.571 114.318 26.553 114.702 27.4387C115.087 28.3052 115.603 29.0465 116.25 29.6627C116.918 30.2789 117.697 30.7603 118.587 31.1069C119.477 31.4342 120.428 31.5979 121.44 31.5979C122.654 31.5979 123.726 31.3668 124.657 30.9047C125.608 30.4233 126.448 29.7494 127.176 28.8829L130.09 31.5112Z" fill="white"/>
<path d="M132.901 20.6801H136.634V22.6442H136.877C137.059 22.2976 137.302 21.9799 137.605 21.691C137.909 21.4022 138.243 21.1519 138.607 20.9401C138.991 20.7283 139.396 20.5646 139.821 20.4491C140.266 20.3335 140.701 20.2758 141.126 20.2758C141.652 20.2758 142.097 20.3239 142.461 20.4202C142.846 20.5165 143.17 20.6416 143.433 20.7957L142.37 24.2327C142.128 24.1172 141.854 24.0306 141.551 23.9728C141.268 23.8958 140.914 23.8573 140.489 23.8573C139.942 23.8573 139.447 23.9632 139.001 24.175C138.556 24.3675 138.172 24.6467 137.848 25.0126C137.545 25.3784 137.302 25.8117 137.12 26.3123C136.958 26.7937 136.877 27.3232 136.877 27.9009V34.8327H132.901V20.6801Z" fill="white"/>
<path d="M150.535 34.1396L144.282 20.6801H148.805L152.568 29.2584H152.781L156.392 20.6801H160.824L151.506 41.0714H147.226L150.535 34.1396Z" fill="white"/>
<path d="M162.819 20.6801H166.552V22.3842H166.795C167.159 21.7873 167.725 21.2771 168.494 20.8534C169.263 20.4298 170.214 20.218 171.347 20.218C172.298 20.218 173.199 20.4106 174.049 20.7957C174.919 21.1615 175.677 21.6814 176.325 22.3554C176.993 23.01 177.519 23.7995 177.903 24.7237C178.288 25.648 178.48 26.6589 178.48 27.7564C178.48 28.854 178.288 29.8649 177.903 30.7891C177.519 31.7134 176.993 32.5125 176.325 33.1864C175.677 33.8411 174.919 34.361 174.049 34.7461C173.199 35.1119 172.298 35.2949 171.347 35.2949C170.214 35.2949 169.263 35.0831 168.494 34.6595C167.725 34.2358 167.159 33.7256 166.795 33.1287H166.552L166.795 35.1505V41.0714H162.819V20.6801ZM170.528 31.8C171.054 31.8 171.55 31.7038 172.015 31.5112C172.501 31.3187 172.926 31.0491 173.29 30.7025C173.654 30.3559 173.947 29.9323 174.17 29.4317C174.393 28.931 174.504 28.3726 174.504 27.7564C174.504 27.1403 174.393 26.5819 174.17 26.0812C173.947 25.5806 173.654 25.157 173.29 24.8104C172.926 24.4638 172.501 24.1942 172.015 24.0017C171.55 23.8091 171.054 23.7128 170.528 23.7128C170.002 23.7128 169.496 23.8091 169.01 24.0017C168.545 24.175 168.13 24.4349 167.766 24.7815C167.402 25.1281 167.108 25.5517 166.886 26.0524C166.663 26.553 166.552 27.121 166.552 27.7564C166.552 28.3919 166.663 28.9599 166.886 29.4605C167.108 29.9612 167.402 30.3848 167.766 30.7314C168.13 31.078 168.545 31.3475 169.01 31.5401C169.496 31.7134 170.002 31.8 170.528 31.8Z" fill="white"/>
<path d="M182.37 23.915H179.76V20.6801H182.37V16.3477H186.346V20.6801H189.988V23.915H186.346V29.4028C186.346 29.7301 186.376 30.0382 186.437 30.327C186.518 30.5966 186.66 30.8277 186.862 31.0202C187.145 31.3283 187.55 31.4823 188.076 31.4823C188.42 31.4823 188.693 31.4535 188.895 31.3957C189.098 31.3187 189.29 31.2224 189.472 31.1069L190.595 34.4284C190.13 34.6402 189.624 34.7942 189.078 34.8905C188.551 35.006 187.965 35.0638 187.317 35.0638C186.568 35.0638 185.891 34.9579 185.284 34.7461C184.697 34.515 184.201 34.207 183.796 33.8218C182.845 32.9554 182.37 31.723 182.37 30.1248V23.915Z" fill="white"/>
<path d="M66.1371 14.2857H74.1302C75.2327 14.2857 76.2331 14.447 77.1314 14.7695C78.0298 15.0921 78.7954 15.538 79.4283 16.1072C80.0816 16.6764 80.5818 17.3595 80.9289 18.1564C81.276 18.9343 81.4495 19.7881 81.4495 20.7179C81.4495 21.4009 81.327 22.046 81.082 22.6532C80.837 23.2414 80.5002 23.7821 80.0714 24.2755C79.6427 24.7498 79.1425 25.1767 78.5708 25.5562C77.9991 25.9167 77.3968 26.2013 76.7639 26.41L76.7333 26.6092L82.6133 34.436V34.6637H77.8664L72.2008 27.0077H70.2714V34.6637H66.1371V14.2857ZM74.0996 23.4786C75.0387 23.4786 75.8043 23.2129 76.3964 22.6817C77.0089 22.1504 77.3152 21.4768 77.3152 20.6609C77.3152 20.3004 77.2437 19.9494 77.1008 19.6079C76.9783 19.2664 76.7843 18.9628 76.5189 18.6971C76.2535 18.4315 75.9166 18.2228 75.5083 18.071C75.1204 17.9002 74.6712 17.8149 74.1608 17.8149H70.2714V23.4786H74.0996Z" fill="#0F3354"/>
<path d="M98.8553 31.3053C98.1611 32.4437 97.2219 33.364 96.0378 34.066C94.874 34.768 93.4449 35.119 91.7503 35.119C90.6069 35.119 89.5453 34.9388 88.5653 34.5783C87.6057 34.1988 86.7686 33.677 86.054 33.0129C85.3395 32.3489 84.778 31.5709 84.3697 30.6792C83.9818 29.7684 83.7878 28.7723 83.7878 27.6908C83.7878 26.6851 83.9818 25.7365 84.3697 24.8447C84.7576 23.9339 85.2986 23.1465 85.9928 22.4824C86.687 21.7994 87.5036 21.2586 88.4428 20.8602C89.4024 20.4617 90.4538 20.2625 91.5972 20.2625C92.8017 20.2625 93.8736 20.4522 94.8128 20.8317C95.7519 21.1922 96.538 21.7045 97.1709 22.3686C97.8038 23.0137 98.2836 23.7821 98.6103 24.6739C98.9369 25.5657 99.1003 26.5334 99.1003 27.5769C99.1003 27.7097 99.1003 27.8236 99.1003 27.9184C99.0798 28.0323 99.0696 28.1366 99.0696 28.2315C99.0492 28.3264 99.039 28.4307 99.039 28.5446H87.7384C87.8201 29.1138 87.9834 29.6071 88.2284 30.0246C88.4938 30.423 88.8103 30.7645 89.1778 31.0491C89.5657 31.3148 89.9842 31.514 90.4334 31.6468C90.8826 31.7607 91.3419 31.8176 91.8115 31.8176C92.7303 31.8176 93.4857 31.6278 94.0778 31.2484C94.6903 30.8499 95.1701 30.3566 95.5171 29.7684L98.8553 31.3053ZM95.2109 25.8977C95.1905 25.6511 95.0986 25.3759 94.9353 25.0724C94.7924 24.7688 94.5678 24.4842 94.2615 24.2185C93.9757 23.9529 93.6082 23.7347 93.159 23.5639C92.7303 23.3932 92.2097 23.3078 91.5972 23.3078C90.7397 23.3078 89.9842 23.5355 89.3309 23.9909C88.6776 24.4462 88.2182 25.0819 87.9528 25.8977H95.2109Z" fill="#0F3354"/>
<path d="M104.388 34.8344C103.653 34.8344 103.02 34.5973 102.489 34.1229C101.979 33.6296 101.724 33.0414 101.724 32.3583C101.724 31.6753 101.979 31.0966 102.489 30.6222C103.02 30.1479 103.653 29.9107 104.388 29.9107C105.123 29.9107 105.746 30.1479 106.256 30.6222C106.767 31.0966 107.022 31.6753 107.022 32.3583C107.022 33.0414 106.767 33.6296 106.256 34.1229C105.746 34.5973 105.123 34.8344 104.388 34.8344ZM104.388 25.3001C103.653 25.3001 103.02 25.0629 102.489 24.5885C101.979 24.0952 101.724 23.507 101.724 22.824C101.724 22.1409 101.979 21.5622 102.489 21.0878C103.02 20.5945 103.653 20.3479 104.388 20.3479C105.123 20.3479 105.746 20.5945 106.256 21.0878C106.767 21.5622 107.022 22.1409 107.022 22.824C107.022 23.507 106.767 24.0952 106.256 24.5885C105.746 25.0629 105.123 25.3001 104.388 25.3001Z" fill="#0F3354"/>
<path fill-rule="evenodd" clip-rule="evenodd" d="M50.5047 25C50.5047 11.1929 39.1988 0 25.2523 0C11.3059 0 0 11.1929 0 25C0 38.801 11.2958 49.99 25.2337 50L25.2523 41.9643C29.2248 41.9643 32.8855 40.6218 35.7916 38.3759L33.5737 35.5594C31.9601 36.8057 30.0698 37.6825 28.0384 38.1058C24.8985 38.76 21.6259 38.288 18.805 36.774C15.9842 35.2601 13.7987 32.8027 12.6389 29.8409C11.8805 27.9041 11.593 25.834 11.7792 23.7942L4.592 23.1686C5.06385 17.9514 7.53165 13.1099 11.4905 9.63469C15.4493 6.15949 20.5999 4.31333 25.8884 4.47394L25.671 11.6136C27.0773 11.6567 28.475 11.9169 29.8122 12.3909C32.1839 13.2315 34.2715 14.7111 35.8397 16.663C37.4078 18.6148 38.3944 20.9614 38.6881 23.4384C38.9818 25.9154 38.5711 28.4244 37.5022 30.6827L30.9748 27.643C29.969 29.7737 27.7848 31.25 25.2523 31.25C21.7657 31.25 18.9393 28.4518 18.9393 25C18.9393 21.5482 21.7657 18.75 25.2523 18.75C28.0342 18.75 30.3957 20.5313 31.2368 23.0046L34.6212 21.7622C33.2696 17.9288 29.5854 15.1786 25.2523 15.1786C22.0452 15.1786 19.1935 16.6852 17.3801 19.0226L14.5179 16.8494C16.4623 14.3396 19.2325 12.6022 22.3277 11.9238L21.5379 8.43536C15.7334 9.70536 11.0346 13.8894 9.08725 19.3582C11.331 20.2151 13.6111 20.9846 15.8939 21.7328C15.5298 22.7549 15.3318 23.8546 15.3318 25C15.3318 30.4242 19.7734 34.8214 25.2523 34.8214C28.442 34.8214 31.2802 33.3311 33.095 31.0154C34.6885 32.2377 36.279 33.4636 37.8696 34.6896C39.1254 35.6575 40.3813 36.6254 41.6385 37.5916C39.6996 40.0647 37.2151 42.0662 34.3751 43.4431C32.6274 44.2903 30.7736 44.8873 28.8692 45.2211L29.6481 49.6226C41.4991 47.5631 50.5047 37.3228 50.5047 25ZM8.2346 26.9995L4.65391 27.4203C4.97495 30.0983 5.82564 32.6874 7.15741 35.0399C8.48919 37.3925 10.276 39.4622 12.4157 41.1311L14.6477 38.3263C11.1679 35.6085 8.77827 31.5835 8.2346 26.9995ZM17.4439 40.1046L15.802 43.2807C17.5754 44.1792 19.4704 44.8202 21.4285 45.1838L22.0929 41.6765C20.4486 41.3731 18.8869 40.8372 17.4439 40.1046ZM40.6945 32.3621L43.9412 33.91C45.7703 30.1497 46.3987 25.9268 45.7426 21.804C45.0865 17.6811 43.177 13.8541 40.2686 10.8327L37.6571 13.2966C40.5883 16.3407 42.3878 20.4623 42.3878 25C42.3878 27.638 41.7796 30.1354 40.6945 32.3621ZM34.7013 10.8458L36.6893 7.8678C34.8272 6.64943 32.7787 5.73659 30.6228 5.16449L29.6899 8.61008C31.4952 9.08792 33.183 9.85032 34.7013 10.8458Z" fill="white"/>
</svg>
