<svg width="162" height="42" viewBox="0 0 162 42" fill="none" xmlns="http://www.w3.org/2000/svg">
<path d="M109.195 26.4694C108.295 27.5046 107.233 28.2971 106.01 28.847C104.787 29.3808 103.42 29.6477 101.909 29.6477C100.55 29.6477 99.2846 29.4132 98.1127 28.9441C96.9578 28.475 95.9557 27.8361 95.1065 27.0274C94.2573 26.2187 93.5864 25.2644 93.0939 24.1646C92.6014 23.0485 92.3551 21.8516 92.3551 20.5738C92.3551 19.2961 92.6014 18.1072 93.0939 17.0074C93.5864 15.8914 94.2573 14.929 95.1065 14.1203C95.9557 13.3115 96.9578 12.6726 98.1127 12.2036C99.2846 11.7345 100.55 11.5 101.909 11.5C103.369 11.5 104.652 11.7426 105.755 12.2278C106.876 12.7131 107.87 13.4167 108.736 14.3386L106.316 16.5707C105.772 15.9722 105.144 15.4951 104.431 15.1392C103.734 14.7834 102.902 14.6055 101.934 14.6055C101.085 14.6055 100.287 14.7511 99.5393 15.0422C98.792 15.3172 98.1382 15.7134 97.5777 16.231C97.0342 16.7486 96.6011 17.3794 96.2784 18.1234C95.9557 18.8513 95.7944 19.6681 95.7944 20.5738C95.7944 21.4796 95.9557 22.3045 96.2784 23.0485C96.6011 23.7764 97.0342 24.3991 97.5777 24.9167C98.1382 25.4342 98.792 25.8386 99.5393 26.1297C100.287 26.4047 101.085 26.5422 101.934 26.5422C102.953 26.5422 103.853 26.3481 104.635 25.9599C105.433 25.5556 106.138 24.9895 106.749 24.2616L109.195 26.4694Z" fill="white"/>
<path d="M111.554 17.3713H114.688V19.0211H114.891C115.044 18.73 115.248 18.4631 115.503 18.2205C115.758 17.9778 116.038 17.7676 116.344 17.5897C116.666 17.4117 117.006 17.2743 117.363 17.1772C117.736 17.0802 118.101 17.0316 118.458 17.0316C118.9 17.0316 119.273 17.0721 119.579 17.153C119.902 17.2338 120.173 17.339 120.394 17.4684L119.503 20.3555C119.299 20.2584 119.069 20.1857 118.815 20.1371C118.577 20.0724 118.28 20.0401 117.923 20.0401C117.464 20.0401 117.048 20.129 116.675 20.307C116.301 20.4687 115.978 20.7032 115.707 21.0105C115.452 21.3179 115.248 21.6818 115.095 22.1023C114.959 22.5067 114.891 22.9515 114.891 23.4367V29.2595H111.554V17.3713Z" fill="white"/>
<path d="M126.355 28.6772L121.107 17.3713H124.903L128.062 24.577H128.241L131.272 17.3713H134.992L127.171 34.5H123.578L126.355 28.6772Z" fill="white"/>
<path d="M136.666 17.3713H139.8V18.8027H140.004C140.309 18.3013 140.785 17.8727 141.43 17.5169C142.076 17.161 142.874 16.9831 143.825 16.9831C144.623 16.9831 145.379 17.1449 146.092 17.4684C146.823 17.7757 147.46 18.2124 148.003 18.7785C148.564 19.3284 149.005 19.9916 149.328 20.7679C149.651 21.5443 149.812 22.3935 149.812 23.3154C149.812 24.2373 149.651 25.0865 149.328 25.8629C149.005 26.6392 148.564 27.3105 148.003 27.8766C147.46 28.4265 146.823 28.8632 146.092 29.1867C145.379 29.494 144.623 29.6477 143.825 29.6477C142.874 29.6477 142.076 29.4698 141.43 29.1139C140.785 28.7581 140.309 28.3295 140.004 27.8281H139.8L140.004 29.5264V34.5H136.666V17.3713ZM143.137 26.712C143.579 26.712 143.995 26.6312 144.386 26.4694C144.793 26.3077 145.15 26.0812 145.456 25.7901C145.761 25.4989 146.008 25.1431 146.194 24.7226C146.381 24.302 146.475 23.833 146.475 23.3154C146.475 22.7978 146.381 22.3288 146.194 21.9082C146.008 21.4877 145.761 21.1319 145.456 20.8407C145.15 20.5496 144.793 20.3231 144.386 20.1614C143.995 19.9996 143.579 19.9188 143.137 19.9188C142.696 19.9188 142.271 19.9996 141.863 20.1614C141.473 20.307 141.125 20.5253 140.819 20.8165C140.513 21.1076 140.267 21.4634 140.08 21.884C139.893 22.3045 139.8 22.7816 139.8 23.3154C139.8 23.8492 139.893 24.3263 140.08 24.7468C140.267 25.1674 140.513 25.5232 140.819 25.8143C141.125 26.1055 141.473 26.3319 141.863 26.4937C142.271 26.6392 142.696 26.712 143.137 26.712Z" fill="white"/>
<path d="M153.077 20.0886H150.886V17.3713H153.077V13.7321H156.415V17.3713H159.472V20.0886H156.415V24.6983C156.415 24.9733 156.44 25.2321 156.491 25.4747C156.559 25.7011 156.678 25.8952 156.848 26.057C157.086 26.3158 157.425 26.4451 157.867 26.4451C158.155 26.4451 158.385 26.4209 158.555 26.3724C158.724 26.3077 158.886 26.2268 159.039 26.1297L159.981 28.9198C159.591 29.0977 159.166 29.2271 158.707 29.308C158.266 29.4051 157.773 29.4536 157.23 29.4536C156.601 29.4536 156.032 29.3646 155.523 29.1867C155.03 28.9926 154.614 28.7338 154.275 28.4103C153.476 27.6825 153.077 26.6473 153.077 25.3049V20.0886Z" fill="white"/>
<path d="M55.514 12H62.2233C63.1487 12 63.9884 12.1355 64.7425 12.4064C65.4965 12.6774 66.1391 13.0519 66.6704 13.5301C67.2188 14.0082 67.6386 14.582 67.93 15.2514C68.2213 15.9048 68.367 16.622 68.367 17.403C68.367 17.9768 68.2642 18.5187 68.0585 19.0287C67.8529 19.5228 67.5701 19.977 67.2102 20.3914C66.8503 20.7898 66.4305 21.1485 65.9506 21.4672C65.4708 21.77 64.9652 22.0091 64.434 22.1844L64.4083 22.3518L69.3438 28.9262V29.1175H65.3594L60.6038 22.6865H58.9843V29.1175H55.514V12ZM62.1976 19.722C62.9859 19.722 63.6285 19.4989 64.1255 19.0526C64.6396 18.6063 64.8967 18.0405 64.8967 17.3552C64.8967 17.0524 64.8367 16.7575 64.7167 16.4706C64.6139 16.1837 64.4511 15.9287 64.2283 15.7056C64.0055 15.4825 63.7228 15.3071 63.38 15.1796C63.0544 15.0362 62.6774 14.9645 62.249 14.9645H58.9843V19.722H62.1976Z" fill="white"/>
<path d="M82.977 26.2964C82.3943 27.2527 81.606 28.0257 80.612 28.6154C79.6352 29.2051 78.4356 29.5 77.0132 29.5C76.0535 29.5 75.1624 29.3486 74.3398 29.0458C73.5343 28.727 72.8317 28.2887 72.2319 27.7309C71.6321 27.173 71.1608 26.5196 70.8181 25.7705C70.4925 25.0055 70.3297 24.1687 70.3297 23.2602C70.3297 22.4155 70.4925 21.6186 70.8181 20.8695C71.1437 20.1045 71.5978 19.4431 72.1805 18.8852C72.7632 18.3115 73.4486 17.8572 74.237 17.5225C75.0424 17.1878 75.925 17.0205 76.8847 17.0205C77.8958 17.0205 78.7955 17.1799 79.5838 17.4986C80.3721 17.8015 81.0319 18.2318 81.5631 18.7896C82.0944 19.3315 82.4971 19.977 82.7713 20.7261C83.0455 21.4752 83.1826 22.288 83.1826 23.1646C83.1826 23.2762 83.1826 23.3718 83.1826 23.4515C83.1655 23.5471 83.1569 23.6348 83.1569 23.7145C83.1398 23.7942 83.1312 23.8818 83.1312 23.9775H73.6457C73.7143 24.4556 73.8514 24.87 74.057 25.2206C74.2798 25.5553 74.5454 25.8422 74.8539 26.0813C75.1795 26.3044 75.5308 26.4718 75.9078 26.5833C76.2849 26.679 76.6705 26.7268 77.0646 26.7268C77.8358 26.7268 78.4699 26.5674 78.9668 26.2486C79.481 25.9139 79.8837 25.4995 80.175 25.0055L82.977 26.2964ZM79.918 21.7541C79.9008 21.5469 79.8237 21.3158 79.6866 21.0608C79.5666 20.8058 79.3781 20.5667 79.1211 20.3436C78.8812 20.1204 78.5727 19.9372 78.1957 19.7937C77.8358 19.6503 77.3988 19.5786 76.8847 19.5786C76.1649 19.5786 75.5308 19.7698 74.9824 20.1523C74.434 20.5348 74.0485 21.0688 73.8257 21.7541H79.918Z" fill="white"/>
<path d="M87.6211 29.2609C87.0042 29.2609 86.4729 29.0617 86.0273 28.6633C85.5989 28.2489 85.3847 27.7548 85.3847 27.181C85.3847 26.6072 85.5989 26.1211 86.0273 25.7227C86.4729 25.3242 87.0042 25.125 87.6211 25.125C88.238 25.125 88.7607 25.3242 89.1891 25.7227C89.6176 26.1211 89.8318 26.6072 89.8318 27.181C89.8318 27.7548 89.6176 28.2489 89.1891 28.6633C88.7607 29.0617 88.238 29.2609 87.6211 29.2609ZM87.6211 21.252C87.0042 21.252 86.4729 21.0528 86.0273 20.6544C85.5989 20.24 85.3847 19.7459 85.3847 19.1721C85.3847 18.5984 85.5989 18.1122 86.0273 17.7138C86.4729 17.2994 87.0042 17.0922 87.6211 17.0922C88.238 17.0922 88.7607 17.2994 89.1891 17.7138C89.6176 18.1122 89.8318 18.5984 89.8318 19.1721C89.8318 19.7459 89.6176 20.24 89.1891 20.6544C88.7607 21.0528 88.238 21.252 87.6211 21.252Z" fill="white"/>
<path fill-rule="evenodd" clip-rule="evenodd" d="M42.3925 21C42.3925 9.40202 32.9026 0 21.1963 0C9.48989 0 0 9.40202 0 21C0 32.5928 9.48142 41.9916 21.1806 42L21.1963 35.25C24.5307 35.25 27.6033 34.1223 30.0427 32.2357L28.1811 29.8699C26.8266 30.9168 25.2399 31.6533 23.5348 32.0088C20.8993 32.5584 18.1523 32.1619 15.7845 30.8902C13.4168 29.6185 11.5823 27.5543 10.6088 25.0663C9.97226 23.4394 9.73091 21.7006 9.88723 19.9871L3.85442 19.4616C4.25048 15.0792 6.3219 11.0123 9.64486 8.09314C12.9678 5.17397 17.2911 3.6232 21.7301 3.75811L21.5477 9.75539C22.7281 9.79161 23.9013 10.0102 25.0237 10.4083C27.0145 11.1145 28.7667 12.3573 30.083 13.9969C31.3993 15.6365 32.2274 17.6076 32.4739 19.6883C32.7205 21.7689 32.3758 23.8765 31.4785 25.7735L25.9996 23.2201C25.1553 25.0099 23.322 26.25 21.1963 26.25C18.2697 26.25 15.8972 23.8995 15.8972 21C15.8972 18.1005 18.2697 15.75 21.1963 15.75C23.5313 15.75 25.5135 17.2463 26.2195 19.3238L29.0603 18.2803C27.9258 15.0602 24.8333 12.75 21.1963 12.75C18.5043 12.75 16.1106 14.0156 14.5884 15.979L12.1861 14.1535C13.8181 12.0452 16.1434 10.5859 18.7413 10.016L18.0785 7.0857C13.2063 8.1525 9.26224 11.6671 7.62764 16.2609C9.511 16.9807 11.4249 17.627 13.341 18.2555C13.0354 19.1141 12.8692 20.0378 12.8692 21C12.8692 25.5563 16.5973 29.25 21.1963 29.25C23.8736 29.25 26.2559 27.9981 27.7792 26.053C29.1167 27.0797 30.4518 28.1094 31.7869 29.1392C32.841 29.9523 33.8951 30.7654 34.9505 31.5769C33.3229 33.6543 31.2376 35.3356 28.8537 36.4922C27.3867 37.2039 25.8307 37.7053 24.2321 37.9858L24.8859 41.683C34.8334 39.953 42.3925 31.3511 42.3925 21ZM6.91194 22.6796L3.90639 23.033C4.17587 25.2825 4.88992 27.4574 6.00778 29.4335C7.12564 31.4097 8.62541 33.1483 10.4215 34.5501L12.295 32.1941C9.37413 29.9111 7.36829 26.5301 6.91194 22.6796ZM14.642 33.6879L13.2638 36.3557C14.7524 37.1105 16.343 37.6489 17.9866 37.9544L18.5443 35.0083C17.1641 34.7534 15.8532 34.3033 14.642 33.6879ZM34.1581 27.1842L36.8833 28.4844C38.4186 25.3257 38.9461 21.7785 38.3953 18.3153C37.8446 14.8522 36.2418 11.6375 33.8006 9.09948L31.6085 11.1691C34.0689 13.7262 35.5794 17.1883 35.5794 21C35.5794 23.2159 35.0689 25.3137 34.1581 27.1842ZM29.1275 9.11044L30.7962 6.60895C29.2332 5.58553 27.5137 4.81874 25.7041 4.33817L24.921 7.23246C26.4363 7.63386 27.8531 8.27427 29.1275 9.11044Z" fill="white"/>
</svg>
