<svg viewBox="0 0 459 370" fill="none" xmlns="http://www.w3.org/2000/svg">
<g filter="url(#filter0_d)">
<path d="M165.951 27.3739C165.955 25.1648 164.708 24.6556 163.165 26.2366L34.0287 158.556C32.4857 160.137 31.2316 163.21 31.2275 165.419L30.9202 332.733C30.9161 334.943 32.1636 335.452 33.7066 333.871L162.843 201.551C164.386 199.97 165.64 196.898 165.644 194.689L165.951 27.3739Z" fill="#0F3354"/>
</g>
<g filter="url(#filter1_d)">
<path d="M213.952 27.3739C213.956 25.1648 212.708 24.6556 211.165 26.2366L82.0289 158.556C80.4859 160.137 79.2318 163.21 79.2278 165.419L78.9204 332.733C78.9164 334.943 80.1639 335.452 81.7069 333.871L210.843 201.551C212.386 199.97 213.64 196.898 213.644 194.689L213.952 27.3739Z" fill="white"/>
</g>
<path opacity="0.3" d="M213.952 27.3739C213.956 25.1648 212.708 24.6556 211.165 26.2366L82.0289 158.556C80.4859 160.137 79.2318 163.21 79.2278 165.419L78.9204 332.733C78.9164 334.943 80.1639 335.452 81.7069 333.871L210.843 201.551C212.386 199.97 213.64 196.898 213.644 194.689L213.952 27.3739Z" fill="#0F3354"/>
<g filter="url(#filter2_d)">
<path d="M261.952 27.374C261.956 25.1649 260.708 24.6557 259.165 26.2367L130.029 158.556C128.486 160.137 127.232 163.21 127.228 165.419L126.92 332.734C126.916 334.943 128.164 335.452 129.707 333.871L258.843 201.551C260.386 199.97 261.64 196.898 261.644 194.689L261.952 27.374Z" fill="#0D72D0"/>
</g>
<path opacity="0.2" d="M198.031 105.876L173.452 218.053L222.29 168.012L198.031 105.876Z" fill="#0F3354"/>
<path opacity="0.2" d="M245.355 117.381L203.254 160.52L203.116 235.655L245.217 192.516L245.355 117.381Z" fill="#0F3354"/>
<path opacity="0.2" d="M189.192 189.926C189.236 166.136 178.465 157.923 165.134 171.582C151.802 185.242 140.96 215.602 140.916 239.393C140.873 263.184 151.644 271.397 164.975 257.737C178.306 244.077 189.149 213.717 189.192 189.926Z" fill="#0F3354"/>
<path fill-rule="evenodd" clip-rule="evenodd" d="M458.3 145.788L458.31 140.082L454.594 143.89L454.584 149.107L454.903 148.781L454.902 149.27L458.3 145.788ZM439.728 159.122L447.161 151.506L447.152 156.723L439.719 164.339L439.728 159.122ZM432.296 166.737L432.286 171.955L424.853 179.571L424.863 174.353L432.296 166.737ZM417.43 181.969L417.421 187.186L409.988 194.802L409.998 189.585L417.43 181.969ZM402.565 197.201L402.555 202.418L402.237 202.745L402.236 203.234L398.838 206.715L398.849 201.009L402.565 197.201ZM398.817 218.128L402.215 214.646L402.194 226.059L398.796 229.54L398.817 218.128ZM398.775 240.953L402.173 237.471L402.152 248.884L398.754 252.366L398.775 240.953ZM398.733 263.778L402.131 260.297L402.11 271.709L398.712 275.191L398.733 263.778ZM398.691 286.603L402.089 283.122L402.088 283.611L402.407 283.284L402.397 288.502L398.681 292.31L398.691 286.603ZM409.83 280.886L409.84 275.668L417.272 268.053L417.263 273.27L409.83 280.886ZM424.695 265.654L424.705 260.437L432.138 252.821L432.128 258.038L424.695 265.654ZM439.561 250.422L439.57 245.205L447.003 237.589L446.993 242.806L439.561 250.422ZM454.426 235.19L454.436 229.973L454.754 229.647L454.755 229.158L458.153 225.676L458.142 231.382L454.426 235.19ZM458.174 214.263L454.776 217.745L454.797 206.332L458.195 202.851L458.174 214.263ZM458.216 191.438L454.818 194.92L454.839 183.507L458.237 180.026L458.216 191.438ZM458.258 168.613L454.86 172.095L454.881 160.682L458.279 157.201L458.258 168.613Z" fill="#0D72D0"/>
<path fill-rule="evenodd" clip-rule="evenodd" d="M326.292 248.94L328.091 241.617L330.214 239.441L330.21 241.929L331.06 241.711L330.291 244.843L326.292 248.94ZM338.027 236.916L338.037 231.425L345.86 223.409L345.85 228.9L338.027 236.916ZM353.673 220.884L353.683 215.393L361.507 207.377L361.497 212.869L353.673 220.884ZM369.32 204.853L369.33 199.361L377.153 191.345L377.143 196.837L369.32 204.853ZM384.879 188.91L384.118 187.344L384.971 185.818L384.976 183.329L387.099 181.154L388.877 184.813L384.879 188.91ZM384.21 175.208L381.007 180.941L377.895 174.538L381.098 168.805L384.21 175.208ZM377.987 162.401L374.784 168.135L371.672 161.731L374.875 155.998L377.987 162.401ZM371.764 149.595L368.56 155.328L365.449 148.925L368.652 143.192L371.764 149.595ZM365.54 136.788L362.337 142.522L359.226 136.118L362.429 130.385L365.54 136.788ZM359.749 124.871L359.382 126.366L357.75 126.786L356.114 129.715L355.751 128.968L357.761 120.78L359.749 124.871ZM353.041 140.004L356.235 139.182L353.088 151.998L349.894 152.82L353.041 140.004ZM346.747 165.636L349.942 164.814L346.795 177.63L343.6 178.452L346.747 165.636ZM340.454 191.268L343.648 190.447L340.501 203.263L337.307 204.084L340.454 191.268ZM334.16 216.9L337.354 216.079L334.207 228.895L331.013 229.716L334.16 216.9Z" fill="#0D72D0"/>
<path fill-rule="evenodd" clip-rule="evenodd" d="M276.431 283.041C277.626 282.055 278.845 280.929 280.083 279.661C281.321 278.392 282.541 277.019 283.737 275.555L283.332 271.111C282.273 272.408 281.192 273.626 280.092 274.753C278.993 275.879 277.912 276.877 276.853 277.75L276.431 283.041ZM290.795 265.432L289.579 262.153C291.594 258.81 293.477 255.206 295.186 251.446L297.126 253.342C295.198 257.584 293.072 261.654 290.795 265.432ZM302.304 240.123L299.775 239.729C301.091 235.767 302.189 231.761 303.029 227.816L305.978 226.671C305.029 231.128 303.789 235.652 302.304 240.123ZM307.884 213.909L304.716 216.522C304.857 214.755 304.931 213.021 304.934 211.333C304.938 209.645 304.869 208.058 304.734 206.574L307.905 202.691C308.057 204.367 308.134 206.157 308.131 208.058C308.127 209.959 308.043 211.913 307.884 213.909ZM306.039 193.794L303.083 198.699C302.254 196.464 301.166 194.698 299.861 193.422L302.401 187.835C303.874 189.274 305.102 191.269 306.039 193.794ZM297.252 185.197L295.297 191.084C293.595 190.819 291.718 191.068 289.708 191.848L290.941 186.06C293.212 185.178 295.331 184.898 297.252 185.197ZM283.893 190.391C282.698 191.377 281.479 192.503 280.241 193.771C279.003 195.04 277.783 196.413 276.587 197.877L276.992 202.32C278.051 201.023 279.133 199.806 280.232 198.679C281.332 197.553 282.413 196.554 283.471 195.682L283.893 190.391ZM269.529 208L270.745 211.279C268.731 214.622 266.848 218.226 265.138 221.986L263.198 220.09C265.127 215.847 267.253 211.778 269.529 208ZM258.02 233.309L260.549 233.703C259.233 237.665 258.135 241.671 257.295 245.615L254.346 246.761C255.295 242.303 256.535 237.78 258.02 233.309ZM252.44 259.523L255.609 256.91C255.467 258.677 255.393 260.411 255.39 262.099C255.387 263.787 255.455 265.374 255.59 266.858L252.42 270.741C252.267 269.065 252.19 267.275 252.193 265.374C252.197 263.473 252.281 261.518 252.44 259.523ZM254.286 279.638L257.242 274.733C258.07 276.967 259.158 278.734 260.464 280.01L257.924 285.597C256.45 284.158 255.222 282.163 254.286 279.638ZM263.073 288.235L265.027 282.347C266.729 282.612 268.606 282.364 270.616 281.584L269.383 287.372C267.112 288.254 264.993 288.534 263.073 288.235Z" fill="#0D72D0"/>
<defs>
<filter id="filter0_d" x="0.920166" y="0.317383" width="195.031" height="369.473" filterUnits="userSpaceOnUse" color-interpolation-filters="sRGB">
<feFlood flood-opacity="0" result="BackgroundImageFix"/>
<feColorMatrix in="SourceAlpha" type="matrix" values="0 0 0 0 0 0 0 0 0 0 0 0 0 0 0 0 0 0 127 0"/>
<feOffset dy="5"/>
<feGaussianBlur stdDeviation="15"/>
<feColorMatrix type="matrix" values="0 0 0 0 0 0 0 0 0 0 0 0 0 0 0 0 0 0 0.12 0"/>
<feBlend mode="normal" in2="BackgroundImageFix" result="effect1_dropShadow"/>
<feBlend mode="normal" in="SourceGraphic" in2="effect1_dropShadow" result="shape"/>
</filter>
<filter id="filter1_d" x="48.9204" y="0.317383" width="195.031" height="369.473" filterUnits="userSpaceOnUse" color-interpolation-filters="sRGB">
<feFlood flood-opacity="0" result="BackgroundImageFix"/>
<feColorMatrix in="SourceAlpha" type="matrix" values="0 0 0 0 0 0 0 0 0 0 0 0 0 0 0 0 0 0 127 0"/>
<feOffset dy="5"/>
<feGaussianBlur stdDeviation="15"/>
<feColorMatrix type="matrix" values="0 0 0 0 0 0 0 0 0 0 0 0 0 0 0 0 0 0 0.12 0"/>
<feBlend mode="normal" in2="BackgroundImageFix" result="effect1_dropShadow"/>
<feBlend mode="normal" in="SourceGraphic" in2="effect1_dropShadow" result="shape"/>
</filter>
<filter id="filter2_d" x="96.9204" y="0.317505" width="195.031" height="369.473" filterUnits="userSpaceOnUse" color-interpolation-filters="sRGB">
<feFlood flood-opacity="0" result="BackgroundImageFix"/>
<feColorMatrix in="SourceAlpha" type="matrix" values="0 0 0 0 0 0 0 0 0 0 0 0 0 0 0 0 0 0 127 0"/>
<feOffset dy="5"/>
<feGaussianBlur stdDeviation="15"/>
<feColorMatrix type="matrix" values="0 0 0 0 0 0 0 0 0 0 0 0 0 0 0 0 0 0 0.12 0"/>
<feBlend mode="normal" in2="BackgroundImageFix" result="effect1_dropShadow"/>
<feBlend mode="normal" in="SourceGraphic" in2="effect1_dropShadow" result="shape"/>
</filter>
</defs>
</svg>
