<svg viewBox="0 0 322 282" fill="none" xmlns="http://www.w3.org/2000/svg">
<g clip-path="url(#clip0)">
<rect opacity="0.4" width="19" height="5" transform="matrix(1 0 0 -1 54 51)" fill="#0F3354"/>
<rect opacity="0.4" width="10" height="5" transform="matrix(1 0 0 -1 45 73)" fill="#0F3354"/>
<rect width="12" height="5" transform="matrix(1 0 0 -1 66 40)" fill="#0D72D0"/>
<rect width="12" height="5" transform="matrix(1 0 0 -1 36 51)" fill="#0D72D0"/>
<rect width="10" height="5" transform="matrix(1 0 0 -1 89 62)" fill="#0D72D0"/>
<rect width="12" height="5" transform="matrix(0.999946 0.0103622 0.0103622 -0.999946 60.9749 72.8445)" fill="#0D72D0"/>
<rect opacity="0.2" width="11" height="5" transform="matrix(1 0 0 -1 79 51)" fill="#0F3354"/>
<rect opacity="0.2" width="36" height="5" transform="matrix(1 0 0 -1 28 62)" fill="#0F3354"/>
<rect opacity="0.4" x="271" y="75" width="12" height="5" transform="rotate(-180 271 75)" fill="#0F3354"/>
<rect opacity="0.4" width="30" height="5" transform="matrix(1 0 0 -1 248 119)" fill="#0F3354"/>
<rect opacity="0.4" width="12" height="5" transform="matrix(1 0 0 -1 269 130)" fill="#0F3354"/>
<rect width="12" height="5" transform="matrix(1 0 0 -1 295 86)" fill="#0D72D0"/>
<rect width="12" height="5" transform="matrix(1 0 0 -1 269 97)" fill="#0D72D0"/>
<rect width="10" height="5" transform="matrix(1 0 0 -1 312 108)" fill="#0D72D0"/>
<rect width="12" height="5" transform="matrix(0.999946 0.0103622 0.0103622 -0.999946 283.975 118.844)" fill="#0D72D0"/>
<rect opacity="0.2" width="35" height="5" transform="matrix(1 0 0 -1 254 86)" fill="#0F3354"/>
<rect opacity="0.2" width="11" height="5" transform="matrix(1 0 0 -1 287 97)" fill="#0F3354"/>
<rect opacity="0.2" width="29" height="5" transform="matrix(1 0 0 -1 278 108)" fill="#0F3354"/>
<rect opacity="0.4" width="39" height="5" transform="matrix(1 0 0 -1 217 218)" fill="#0F3354"/>
<rect opacity="0.2" width="14" height="5" transform="matrix(1 0 0 -1 247 229)" fill="#0F3354"/>
<rect width="12" height="5" transform="matrix(0.999946 0.0103622 0.0103622 -0.999946 228 229)" fill="#0D72D0"/>
<rect opacity="0.4" width="19" height="5" transform="matrix(1 0 0 -1 74 224)" fill="#0F3354"/>
<rect width="12" height="5" transform="matrix(1 0 0 -1 86 213)" fill="#0D72D0"/>
<rect width="12" height="5" transform="matrix(1 0 0 -1 56 224)" fill="#0D72D0"/>
<rect width="10" height="5" transform="matrix(1 0 0 -1 109 235)" fill="#0D72D0"/>
<rect width="12" height="5" transform="matrix(0.999946 0.0103622 0.0103622 -0.999946 80.9749 245.844)" fill="#0D72D0"/>
<rect opacity="0.2" width="35" height="5" transform="matrix(1 0 0 -1 45 213)" fill="#0F3354"/>
<rect opacity="0.2" width="11" height="5" transform="matrix(1 0 0 -1 99 224)" fill="#0F3354"/>
<rect opacity="0.2" width="36" height="5" transform="matrix(1 0 0 -1 68 235)" fill="#0F3354"/>
<g filter="url(#filter0_d)">
<path d="M257.544 62.2132L164.392 12.5465C163.01 11.8085 161.353 11.8188 159.982 12.5724L69.4068 62.2391C67.9213 63.0548 67 64.6137 67 66.3098V131.187C67.0543 184.518 98.6323 232.766 147.466 254.132L160.039 259.614C161.214 260.127 162.552 260.129 163.729 259.619L177.895 253.497C227.635 232.595 259.995 183.881 260 129.9V66.3098C260 64.5955 259.055 63.0185 257.544 62.2132Z" fill="#0F3354"/>
</g>
<path d="M241.951 74.1143L164.244 32.4583C163.091 31.8394 161.709 31.848 160.565 32.48L85.0077 74.136C83.7685 74.8201 83 76.1276 83 77.5502V131.964C83.0453 176.693 109.388 217.158 150.125 235.078L160.613 239.676C161.593 240.106 162.709 240.108 163.691 239.68L175.509 234.546C217.002 217.015 243.996 176.158 244 130.884V77.5502C244 76.1124 243.212 74.7897 241.951 74.1143Z" fill="#0D72D0"/>
<path fill-rule="evenodd" clip-rule="evenodd" d="M156.83 105.155C153.317 107.482 151 111.47 151 116C151 116.743 151.063 117.472 151.182 118.182C149.343 118.726 148 120.428 148 122.444V122.961L139.654 118.607L135.905 106.89L132.095 108.109L136.095 120.609L136.346 121.393L137.075 121.773L148 127.473V142C148 142.339 148.011 142.676 148.031 143.01L137.075 148.727L136.346 149.107L136.095 149.89L132.095 162.39L135.905 163.609L139.654 151.893L148.832 147.105C150.962 153.438 156.948 158 164 158C171.134 158 177.178 153.331 179.242 146.882L188.846 151.893L192.595 163.609L196.405 162.39L192.405 149.89L192.154 149.107L191.425 148.727L179.982 142.757C179.994 142.506 180 142.254 180 142V127.734L191.425 121.773L192.154 121.393L192.405 120.609L196.405 108.109L192.595 106.89L188.846 118.607L180 123.222V122.444C180 120.428 178.658 118.726 176.818 118.182C176.938 117.472 177 116.743 177 116C177 111.294 174.5 107.172 170.755 104.89L173.405 96.6095L169.595 95.3904L167.045 103.359C166.069 103.124 165.049 103 164 103C162.785 103 161.609 103.167 160.493 103.478L157.905 95.3904L154.095 96.6095L156.83 105.155ZM136.952 134L126.86 129.194L125.14 132.806L135.64 137.806L136.048 138H136.5H148V134H136.952ZM201.474 131.07L190.732 134H180V138H191H191.268L191.526 137.929L202.526 134.929L201.474 131.07Z" fill="white"/>
<path d="M164 158V125" stroke="#CFD6DD" stroke-width="4"/>
</g>
<defs>
<filter id="filter0_d" x="37" y="-13" width="253" height="308" filterUnits="userSpaceOnUse" color-interpolation-filters="sRGB">
<feFlood flood-opacity="0" result="BackgroundImageFix"/>
<feColorMatrix in="SourceAlpha" type="matrix" values="0 0 0 0 0 0 0 0 0 0 0 0 0 0 0 0 0 0 127 0"/>
<feOffset dy="5"/>
<feGaussianBlur stdDeviation="15"/>
<feColorMatrix type="matrix" values="0 0 0 0 0 0 0 0 0 0 0 0 0 0 0 0 0 0 0.12 0"/>
<feBlend mode="normal" in2="BackgroundImageFix" result="effect1_dropShadow"/>
<feBlend mode="normal" in="SourceGraphic" in2="effect1_dropShadow" result="shape"/>
</filter>
<clipPath id="clip0">
<rect width="322" height="282" fill="white"/>
</clipPath>
</defs>
</svg>
