<svg width="169" height="158" viewBox="0 0 169 158" fill="none" xmlns="http://www.w3.org/2000/svg">
<path opacity="0.12" fill-rule="evenodd" clip-rule="evenodd" d="M202 101C202 45.2192 156.781 0 101 0C45.2192 0 0 45.2192 0 101C0 156.756 45.1789 201.96 100.925 202L101 169.536C116.888 169.536 131.53 164.112 143.153 155.038L134.283 143.66C127.828 148.695 120.268 152.237 112.143 153.947C99.5848 156.59 86.4956 154.683 75.2132 148.567C63.9308 142.451 55.1897 132.523 50.551 120.557C47.5177 112.733 46.3677 104.369 47.1126 96.1284L18.3663 93.6013C20.2535 72.5237 30.1238 52.9639 45.9577 38.9241C61.7915 24.8843 82.3919 17.4259 103.544 18.0747L102.675 46.9188C108.299 47.093 113.889 48.1443 119.238 50.0592C128.724 53.4554 137.073 59.4329 143.345 67.3184C149.618 75.2039 153.563 84.6841 154.738 94.6911C155.913 104.698 154.27 114.834 149.995 123.958L123.888 111.678C119.865 120.286 111.129 126.25 101 126.25C87.0548 126.25 75.75 114.945 75.75 101C75.75 87.0548 87.0548 75.75 101 75.75C112.126 75.75 121.572 82.9464 124.936 92.9385L138.472 87.9193C133.066 72.4323 118.331 61.3214 101 61.3214C88.1727 61.3214 76.767 67.4083 69.5138 76.8512L58.0664 68.0714C65.8431 57.9319 76.923 50.913 89.3023 48.1723L86.1437 34.0788C62.9278 39.2097 44.1345 56.113 36.3456 78.207C45.3198 81.6689 54.4394 84.7776 63.5698 87.8005C62.1136 91.9298 61.3214 96.3724 61.3214 101C61.3214 122.914 79.0861 140.679 101 140.679C113.758 140.679 125.109 134.658 132.368 125.302C138.741 130.24 145.103 135.193 151.464 140.146C156.487 144.056 161.51 147.967 166.539 151.87C158.784 161.861 148.847 169.947 137.488 175.51C130.498 178.933 123.083 181.345 115.466 182.693L118.581 200.475C165.981 192.155 202 150.784 202 101ZM32.9354 109.078L18.6139 110.778C19.898 121.597 23.3004 132.057 28.627 141.561C33.9536 151.066 41.1 159.427 49.6582 166.17L58.5855 154.838C44.6676 143.858 35.1098 127.597 32.9354 109.078ZM69.769 162.023L63.202 174.854C70.2952 178.484 77.8743 181.074 85.7059 182.542L88.3635 168.373C81.7868 167.147 75.5405 164.982 69.769 162.023ZM162.763 130.743L175.748 136.996C183.064 121.805 185.578 104.744 182.953 88.088C180.329 71.4318 172.692 55.9706 161.059 43.7642L150.614 53.7181C162.338 66.0164 169.536 82.6676 169.536 101C169.536 111.657 167.103 121.747 162.763 130.743ZM138.792 43.8169L146.744 31.7859C139.296 26.8637 131.103 23.1758 122.48 20.8645L118.749 34.7847C125.969 36.7152 132.72 39.7953 138.792 43.8169Z" fill="#0F3354"/>
</svg>
