<svg width="23" height="20" fill="none" viewBox="0 0 23 20" xmlns="http://www.w3.org/2000/svg">
<path d="M11.2127 16.7738H12.5899C12.5899 16.7738 13.0048 16.7308 13.2166 16.5141C13.4179 16.312 13.4179 15.9381 13.4179 15.9381C13.4179 15.9381 13.3882 14.1761 14.2507 13.9174C15.1007 13.6605 16.1788 15.618 17.3279 16.3705C18.2057 16.9456 18.866 16.8222 18.866 16.8222L21.9432 16.782C21.9432 16.782 23.5552 16.686 22.7933 15.4781C22.7348 15.3821 22.3611 14.5867 20.5211 12.9546C18.5929 11.253 18.8516 11.5273 21.1689 8.57768C22.5767 6.78102 23.1527 5.6829 22.9658 5.2166C22.8067 4.77772 21.7583 4.88652 21.7583 4.88652L18.3063 4.91487C18.3063 4.91487 18.0476 4.88652 17.8607 4.99716C17.6738 5.10596 17.5598 5.35466 17.5598 5.35466C17.5598 5.35466 17.0116 6.75267 16.2795 7.93308C14.7241 10.4283 14.1059 10.5654 13.8616 10.4009C13.2827 10.0434 13.4313 8.95621 13.4313 8.1772C13.4313 5.76245 13.8184 4.74846 12.6828 4.48787C12.3091 4.40467 12.0302 4.35072 11.068 4.33609C9.83176 4.32329 8.78909 4.34524 8.19779 4.62045C7.80966 4.80606 7.50779 5.2166 7.68125 5.23763C7.91125 5.26506 8.42779 5.37112 8.70092 5.72862C9.0603 6.19127 9.04496 7.22447 9.04496 7.22447C9.04496 7.22447 9.24717 10.0735 8.57154 10.4274C8.09716 10.6669 7.46466 10.1714 6.08465 7.90747C5.38027 6.75542 4.84744 5.46621 4.84744 5.46621C4.84744 5.46621 4.74681 5.23214 4.56089 5.09499C4.34335 4.94412 4.0271 4.88926 4.0271 4.88926L0.735206 4.91669C0.735206 4.91669 0.246453 4.93132 0.0749107 5.13613C-0.0841735 5.31443 0.0595773 5.69845 0.0595773 5.69845C0.0595773 5.69845 2.63368 11.4469 5.55278 14.3416C8.22654 16.995 11.2606 16.824 11.2606 16.824L11.2127 16.7738Z" fill="#0D72D0"/>
</svg>
